<svg width="200" height="150" viewBox="0 0 800 600" fill="none" xmlns="http://www.w3.org/2000/svg" data-reactroot="">
<path fill-rule="evenodd" clip-rule="evenodd" d="M567.487 232.641C567.491 232.644 567.495 232.647 557.142 246.264L567.495 232.647C575.015 238.365 576.476 249.096 570.759 256.617C565.057 264.116 554.368 265.59 546.851 259.928C546.844 259.922 546.831 259.913 546.814 259.9C546.747 259.851 546.607 259.75 546.398 259.604C545.979 259.312 545.29 258.846 544.368 258.267C542.509 257.101 539.78 255.531 536.455 254.013C529.564 250.867 521.39 248.531 513.548 249.192C504.134 249.986 495.859 242.999 495.065 233.585C494.271 224.171 501.259 215.896 510.673 215.102C526.653 213.755 540.994 218.477 550.663 222.892C555.619 225.154 559.682 227.489 562.544 229.284C563.982 230.186 565.137 230.964 565.971 231.546C566.388 231.837 566.727 232.08 566.982 232.266C567.11 232.359 567.216 232.438 567.302 232.502C567.345 232.534 567.382 232.562 567.415 232.586L567.459 232.62L567.487 232.641Z" fill="#FF7373"></path>
<path d="M698.078 371.543H671.918V180.186C671.918 175.665 675.583 172 680.104 172H689.892C694.413 172 698.078 175.665 698.078 180.186V371.543Z" fill="#FF7373"></path>
<path d="M698.08 371.543H671.92V180.186C671.92 175.665 675.585 172 680.106 172H689.894C694.415 172 698.08 175.665 698.08 180.186V371.543Z" fill="white" fill-opacity="0.28"></path>
<path d="M671.918 371.83L743.107 428.492V241.189C743.107 238.695 741.97 236.338 740.019 234.785L679.838 178.591C674.475 174.322 671.918 182.41 671.918 189.264V371.83Z" fill="#FF7373"></path>
<path d="M671.92 371.83L743.109 428.492V241.189C743.109 238.695 741.972 236.338 740.021 234.785L679.84 178.591C674.477 174.322 671.92 182.41 671.92 189.264V371.83Z" fill="black" fill-opacity="0.24"></path>
<path d="M756.188 378.199H51.375V428.492H756.188V378.199Z" fill="#FF7373"></path>
<path d="M744.858 364.892H43.8301V401.11H744.858V364.892Z" fill="#2249B3"></path>
<path d="M695.447 346.209H60.0025C48.6264 346.209 39.4043 334.95 39.4043 321.062L48.4618 312.122C48.4618 298.234 86.3178 259.851 97.6939 259.851L674.543 264.374C685.919 264.374 735.958 331.204 735.958 331.204C735.958 345.092 706.823 346.209 695.447 346.209Z" fill="#B0C1E1"></path>
<path d="M718.517 372.546H39.4049C27.5421 372.546 27.5421 322.253 39.4049 322.253H718.517C730.38 322.253 739.996 331.87 739.996 343.732V351.066C739.996 362.929 730.38 372.546 718.517 372.546Z" fill="#B0C1E1"></path>
<path fill-rule="evenodd" clip-rule="evenodd" d="M718.519 322.771H564.109V321.734H718.519V322.771Z" fill="#2249B3"></path>
<path fill-rule="evenodd" clip-rule="evenodd" d="M59.1504 372.027H721.628V373.064H59.1504V372.027Z" fill="white"></path>
<path d="M698.272 316.365L694.389 316.365C679.432 324.382 651.679 324.047 612.362 316.365L606.64 316.365V313.758C600.139 321.359 576.225 270.139 581.275 258.28L581.275 254.301C582.457 254.503 583.642 255.054 584.834 254.881C610.399 251.175 638.596 251.132 668.734 254.834C670.122 255.005 671.514 254.485 672.908 254.301L672.908 258.55C686.284 261.176 713.808 306.676 698.272 313.758L698.272 316.365Z" fill="#2249B3"></path>
<path d="M583.619 296.896C571.83 306.409 543.385 306.106 543.385 306.106L446.906 314.617L447.835 242.624C447.835 242.624 566.413 229.757 579.912 248.991C579.912 248.991 592.484 289.742 583.619 296.896Z" fill="#FF7373"></path>
<path d="M575.248 270.858C570.451 264.645 569.868 258.161 572.64 251.462L604.57 250.674L605.079 271.316L575.248 270.858Z" fill="#E4B69D"></path>
<path fill-rule="evenodd" clip-rule="evenodd" d="M574.975 251.501C574.975 251.502 574.975 251.502 574.974 251.503C574.97 251.508 574.958 251.522 574.941 251.544C574.907 251.589 574.85 251.666 574.775 251.775C574.626 251.992 574.409 252.334 574.174 252.791C573.703 253.705 573.165 255.068 572.933 256.814C572.48 260.232 573.162 265.43 578.522 271.927C579.212 272.763 579.094 274 578.258 274.69C577.422 275.379 576.185 275.261 575.495 274.425C569.518 267.18 568.431 260.911 569.043 256.298C569.344 254.028 570.047 252.233 570.684 250.995C571.003 250.375 571.307 249.891 571.54 249.552C571.657 249.383 571.756 249.249 571.83 249.152C571.868 249.104 571.899 249.064 571.923 249.034C571.935 249.019 571.946 249.007 571.954 248.996L571.966 248.982L571.97 248.977L571.972 248.974C571.973 248.973 571.974 248.972 573.471 250.242" fill="#2249B3"></path>
<path d="M599.921 250.789L600.192 269.625C600.192 269.625 587.323 254.057 589.274 251.052L599.921 250.789Z" fill="#1E2451"></path>
<path d="M597.985 259.758L597.716 248.846C597.407 236.329 607.304 225.932 619.82 225.623L648.953 224.904C661.47 224.596 671.867 234.492 672.176 247.009L672.54 261.784C672.849 274.3 662.952 284.697 650.436 285.006L625.166 285.63C610.516 285.991 598.347 274.408 597.985 259.758Z" fill="#E4B69D"></path>
<path d="M634.453 293.039C639.248 292.92 643.049 289.386 642.945 285.145C642.84 280.904 638.869 277.561 634.074 277.679C629.279 277.798 625.477 281.332 625.582 285.573C625.687 289.815 629.658 293.157 634.453 293.039Z" fill="#E4B69D"></path>
<path d="M675.001 218.361C682.55 217.379 686.364 216.929 688.301 218.957C691.467 222.268 690.09 230.125 686.713 231.662C683.717 233.025 679.196 229.388 679.147 229.478C679.079 229.605 689.812 232.974 694.852 241.389C698.334 247.203 699.088 255.407 695.845 257.866C692.533 260.377 686.176 256.043 685.125 257.667C683.787 259.736 694.723 265.808 694.058 272.833C693.619 277.473 689.317 283.436 680.476 284.514C673.923 285.312 663.172 289.298 656.746 289.15C649.7 288.988 661.147 265.359 660.065 260.083C659.563 257.631 659.104 255.88 658.671 254.458C657.288 249.916 656.319 246.824 655.996 245.836C653.967 239.624 654.093 226.978 661.105 221.537C663.223 219.894 667.149 219.383 675.001 218.361Z" fill="#1E2451"></path>
<path d="M662.137 264.417C662.137 264.417 646.201 276.584 638.537 276.052C630.874 275.52 638.726 283.708 638.726 283.708C638.726 283.708 642.763 283.351 642.943 285.145C643.123 286.939 661.332 293.12 662.685 284.704C664.039 276.288 662.137 264.417 662.137 264.417Z" fill="#1E2451"></path>
<path fill-rule="evenodd" clip-rule="evenodd" d="M641.212 219.191C642.147 218.643 643.349 218.956 643.898 219.891L649.1 228.765C649.648 229.699 649.334 230.902 648.4 231.45C647.465 231.998 646.262 231.684 645.714 230.749L640.512 221.876C639.964 220.941 640.277 219.739 641.212 219.191Z" fill="#1E2451"></path>
<path fill-rule="evenodd" clip-rule="evenodd" d="M647.23 250.139C648.089 250.799 648.251 252.031 647.59 252.891L641.323 261.047C640.663 261.906 639.431 262.067 638.571 261.407C637.712 260.747 637.551 259.515 638.211 258.655L644.479 250.499C645.139 249.64 646.371 249.479 647.23 250.139Z" fill="#1E2451"></path>
<path fill-rule="evenodd" clip-rule="evenodd" d="M621.648 233.884C622.444 233.779 623.276 233.842 623.942 233.905C626.919 234.185 631.946 234.988 638.981 237.585C639.32 237.71 639.494 238.086 639.368 238.425C639.243 238.764 638.867 238.937 638.528 238.812C631.606 236.257 626.69 235.478 623.82 235.208L623.881 234.556L623.82 235.208C623.155 235.145 622.454 235.097 621.819 235.181C621.186 235.264 620.703 235.467 620.388 235.833L619.893 235.407L620.388 235.833C620.116 236.15 619.974 236.581 619.949 237.118C619.924 237.657 620.019 238.256 620.178 238.846C620.494 240.025 621.026 241.043 621.121 241.221C621.292 241.539 621.172 241.935 620.854 242.106C620.536 242.277 620.139 242.157 619.968 241.839C619.857 241.631 619.269 240.51 618.914 239.185C618.736 238.523 618.608 237.779 618.642 237.057C618.676 236.333 618.875 235.586 619.397 234.98L619.397 234.98C620.005 234.274 620.851 233.989 621.648 233.884Z" fill="#1E2451"></path>
<path fill-rule="evenodd" clip-rule="evenodd" d="M611.057 238.927C611.265 239.222 611.194 239.63 610.898 239.838C608.992 241.181 608.331 243.658 609.238 245.644L609.238 245.644C610.053 247.43 612.007 248.535 614.074 248.307C614.433 248.268 614.756 248.527 614.796 248.886C614.835 249.245 614.576 249.568 614.217 249.608C611.61 249.895 609.107 248.506 608.048 246.188C606.87 243.61 607.742 240.462 610.145 238.769C610.441 238.561 610.849 238.632 611.057 238.927Z" fill="#1E2451"></path>
<path d="M645.826 255.682L645.27 242.962L645.027 237.417L644.392 222.892L644.189 218.241C644.083 215.818 642.033 213.94 639.61 214.046L631.658 214.394C630.751 214.434 629.875 214.583 629.042 214.829C622.888 216.648 620.588 224.044 623.982 229.49C628.683 237.034 629.021 244.769 624.996 252.695C622.091 258.416 625.028 265.584 631.317 266.858C632.168 267.031 633.054 267.103 633.961 267.064L641.913 266.716C644.336 266.61 646.214 264.56 646.108 262.138L645.826 255.682Z" fill="#2249B3"></path>
<path d="M639.515 283.646C637.878 283.789 636.436 282.578 636.294 280.942L634.924 265.24C634.781 263.604 635.991 262.162 637.628 262.019C639.264 261.876 640.706 263.087 640.849 264.723L642.219 280.425C642.361 282.062 641.151 283.504 639.515 283.646Z" fill="#2249B3"></path>
<path d="M536.725 330.642L92.547 347.763L15.9945 387.144C2.39616 387.336 15.1789 322.878 22.472 311.399L45.7166 274.815C65.1745 244.19 98.9395 225.639 135.223 225.639H490.878C516.199 225.639 536.725 246.165 536.725 271.486V330.642Z" fill="#2249B3"></path>
<path d="M533.55 354.598L458.527 345.011C448.076 343.675 440.246 334.781 440.246 324.245L438.658 211.193C438.658 203.248 480.466 200.035 512.55 208.722C531.649 213.894 545.636 230.227 547.843 249.89L557.057 331.982C558.238 345.296 546.809 356.292 533.55 354.598Z" fill="#2249B3"></path>
<path d="M533.55 354.598L458.527 345.011C448.076 343.675 440.246 334.781 440.246 324.245L438.658 211.193C438.658 203.248 480.466 200.035 512.55 208.722C531.649 213.894 545.636 230.227 547.843 249.89L557.057 331.982C558.238 345.296 546.809 356.292 533.55 354.598Z" fill="white" fill-opacity="0.14"></path>
<path d="M412.499 300.012C412.075 299.744 401.646 298.099 398.602 291.349C399.222 288.184 411.043 291.614 411.043 291.614C411.043 291.614 390.87 284.081 392.449 280.337C394.029 276.593 409.361 282.558 409.361 282.558C409.361 282.558 393.688 275.883 395.088 272.422C396.01 270.142 405.744 275.009 412.631 276.513C416.204 277.294 421.895 274.938 421.895 274.938C421.895 274.938 410.545 268.41 410.956 266.199C411.367 263.989 424.145 268.321 424.145 268.321C424.145 268.321 433.144 271.316 434.997 277.453C437.065 284.302 449.308 283.77 448.496 286.452C446.872 291.816 443.68 292.099 441.614 296.511C440.297 299.324 412.499 300.012 412.499 300.012Z" fill="#E4B69D"></path>
<path fill-rule="evenodd" clip-rule="evenodd" d="M432.669 286.98C436.249 278.244 446.23 274.061 454.968 277.633C454.973 277.635 454.978 277.637 454.984 277.639L448.497 293.467C454.984 277.639 454.981 277.638 454.979 277.637L454.97 277.633L454.995 277.644C455.029 277.657 455.091 277.682 455.182 277.718C455.363 277.79 455.656 277.906 456.05 278.057C456.84 278.361 458.033 278.809 459.554 279.349C462.607 280.433 466.918 281.863 471.892 283.232C482.285 286.09 493.814 288.175 502.644 287.43C513.514 286.514 528.056 283.932 540.33 281.451C546.37 280.23 551.69 279.069 555.495 278.215C557.396 277.788 558.915 277.438 559.95 277.197C560.468 277.077 560.865 276.983 561.129 276.921L561.422 276.851L561.505 276.832C561.506 276.831 561.507 276.831 561.507 276.831C561.507 276.831 561.506 276.831 565.489 293.467L569.472 310.102C578.66 307.902 584.324 298.671 582.124 289.484C579.925 280.297 570.694 274.632 561.507 276.831M565.489 293.467C569.472 310.102 569.471 310.102 569.47 310.102L569.339 310.134C569.259 310.153 569.143 310.18 568.994 310.216C568.695 310.286 568.261 310.388 567.705 310.518C566.592 310.777 564.988 311.146 562.993 311.594C559.007 312.489 553.441 313.704 547.107 314.984C534.633 317.505 518.471 320.428 505.519 321.52C490.526 322.785 474.263 319.365 462.819 316.217C456.875 314.582 451.757 312.884 448.11 311.59C446.281 310.94 444.807 310.387 443.766 309.987C443.245 309.787 442.832 309.624 442.537 309.507C442.389 309.448 442.27 309.4 442.182 309.364L442.073 309.32L442.015 309.297C442.012 309.296 442.01 309.294 448.497 293.467L442.01 309.294C433.268 305.712 429.086 295.721 432.669 286.98" fill="#FF7373"></path>
<path d="M789.788 246.275V246.275L744.096 247.367L682.258 181.063L679.678 172H700.517C704.33 172 708.055 173.15 711.204 175.3L782.328 232.15C786.996 235.336 789.788 240.623 789.788 246.275Z" fill="#FF7373"></path>
<path d="M789.788 246.275V246.275L744.096 247.367L682.258 181.063L679.678 172H700.517C704.33 172 708.055 173.15 711.204 175.3L782.328 232.15C786.996 235.336 789.788 240.623 789.788 246.275Z" fill="white" fill-opacity="0.28"></path>
<path d="M789.999 428.492H743.105V245.428C743.105 240.907 746.77 237.242 751.291 237.242H781.814C786.335 237.242 789.999 240.907 789.999 245.428V428.492Z" fill="#FF7373"></path>
</svg>
