<svg width="200" height="150" viewBox="0 0 800 600" fill="none" xmlns="http://www.w3.org/2000/svg" data-reactroot="">
<path d="M483.118 258.308C494.978 258.308 504.592 248.693 504.592 236.833C504.592 224.973 494.978 215.358 483.118 215.358C471.257 215.358 461.643 224.973 461.643 236.833C461.643 248.693 471.257 258.308 483.118 258.308Z" fill="#2249B3"></path>
<path d="M471.294 250.025L467.812 265.967L484.914 252.566L471.294 250.025Z" fill="#2249B3"></path>
<path d="M472.806 240.412C474.782 240.412 476.385 238.809 476.385 236.833C476.385 234.856 474.782 233.253 472.806 233.253C470.829 233.253 469.227 234.856 469.227 236.833C469.227 238.809 470.829 240.412 472.806 240.412Z" fill="white" fill-opacity="0.49"></path>
<path d="M483.116 240.412C485.093 240.412 486.695 238.809 486.695 236.833C486.695 234.856 485.093 233.253 483.116 233.253C481.14 233.253 479.537 234.856 479.537 236.833C479.537 238.809 481.14 240.412 483.116 240.412Z" fill="white"></path>
<path d="M493.427 240.412C495.404 240.412 497.006 238.809 497.006 236.833C497.006 234.856 495.404 233.253 493.427 233.253C491.45 233.253 489.848 234.856 489.848 236.833C489.848 238.809 491.45 240.412 493.427 240.412Z" fill="white" fill-opacity="0.49"></path>
<path fill-rule="evenodd" clip-rule="evenodd" d="M479.406 331.95C491.359 327.37 501.596 334.266 502.603 334.971C503.244 335.415 506.582 337.808 509.395 341.363C512.192 344.898 514.679 349.857 513.003 355.281L513.003 355.281C511.73 359.401 508.515 362.273 504.81 363.997C501.108 365.719 496.796 366.359 493.072 365.943L493.072 365.943C489.477 365.542 485.385 364.039 482.137 361.622C478.889 359.203 476.347 355.754 476.216 351.452L476.216 351.451C476.056 346.172 479.601 339.833 485.735 338.272M510.669 354.56C511.986 350.296 510.1 346.192 507.479 342.879C504.88 339.595 501.763 337.36 501.211 336.979L501.203 336.974L501.203 336.974C500.307 336.345 491.01 330.12 480.281 334.232L480.28 334.232C471.586 337.562 468.201 345.271 467.605 346.685C467.343 347.307 466.627 347.598 466.005 347.336C465.384 347.074 465.092 346.358 465.354 345.736C466.004 344.194 469.729 335.657 479.406 331.95" fill="#B0C1E1"></path>
<path d="M459.222 329.011C451.869 341.092 447.874 341.325 447.874 341.325C447.874 341.325 386.491 336.255 350.968 314.072C344.079 309.76 328.724 256.036 323.569 224.52C322.298 216.738 317.119 213.464 317.119 213.464C311.048 211.424 314.407 194.714 316.459 188.642C318.499 182.559 317.107 172.518 322.836 175.413C330.776 179.42 337.898 189.192 345.483 201.701C358.078 222.418 371.808 295.724 371.808 295.724L459.222 329.011Z" fill="#683B28"></path>
<path fill-rule="evenodd" clip-rule="evenodd" d="M480.122 272.589C481.585 274.443 481.268 277.132 479.414 278.594L430.577 317.134C428.723 318.597 426.034 318.28 424.572 316.427C423.109 314.573 423.426 311.885 425.279 310.422L474.117 271.882C475.971 270.419 478.659 270.736 480.122 272.589Z" fill="#B0C1E1"></path>
<path d="M319.208 394.046H301.117V586.331H319.208V394.046Z" fill="#FF7373"></path>
<path d="M319.209 399.385V426.381C312.698 429.801 301.179 424.732 301.179 424.732C301.154 424.732 301.13 424.732 301.105 424.708V399.385H319.209Z" fill="black"></path>
<path d="M386.445 394.046H368.354V586.331H386.445V394.046Z" fill="#FF7373"></path>
<path d="M386.441 399.385V426.381C379.93 429.801 368.411 424.732 368.411 424.732C368.387 424.732 368.362 424.732 368.338 424.708V399.385H386.441Z" fill="black"></path>
<path d="M404.021 404.698H283.539C275.636 404.698 269.223 398.285 269.223 390.382V388.024C269.223 380.121 275.636 373.708 283.539 373.708H404.033C411.937 373.708 418.35 380.121 418.35 388.024V390.382C418.338 398.285 411.937 404.698 404.021 404.698Z" fill="#2249B3"></path>
<path d="M472.768 566.494L492.875 566.42L491.458 520.246L469.152 520.331L472.768 566.494Z" fill="#915636"></path>
<path d="M493.292 548.805C493.292 548.805 533.371 564.759 557.582 569.767C559.219 570.109 560.306 571.184 561.039 572.625C563.776 578.013 559.378 584.34 553.331 584.169L470.437 581.922C468.934 581.897 467.7 580.773 467.517 579.295C466.882 573.994 465.892 559.604 469.985 554.644C470.803 553.643 472.757 554.522 474.565 555.133C476.569 555.805 480.001 565.895 492.205 555.829C493.353 554.864 491.96 550.124 493.292 548.805Z" fill="#2249B3"></path>
<path d="M439.75 567.727L461.334 567.715V510.485L437.502 510.522L439.75 567.727Z" fill="#915636"></path>
<path d="M459.98 554.461C459.98 554.461 500.011 570.537 524.21 575.607C525.834 575.949 526.934 577.036 527.654 578.477C530.366 583.876 525.957 590.18 519.922 589.996L437.027 587.504C435.537 587.468 434.291 586.356 434.12 584.866C433.509 579.552 432.557 565.174 436.661 560.215C437.492 559.213 439.434 560.093 441.242 560.716C443.245 561.4 446.641 571.49 458.881 561.461C460.029 560.508 458.649 555.768 459.98 554.461Z" fill="#FF7373"></path>
<path d="M465.881 544.163L500.047 541.781C500.047 541.781 509.319 367.258 488.272 340.066C467.224 312.874 414.453 325.847 414.453 325.847L465.881 544.163Z" fill="#2249B3"></path>
<path d="M474.749 547.364L468.507 374.294C468.507 374.294 466.1 324.711 440.02 321.718C433.045 320.924 379.358 321.242 364.699 321.108C366.702 302.112 360.314 282.36 336.774 281.431L301.875 276.606C288.095 276.179 273.498 271.732 269.222 284.84C256.787 323.001 262.528 373.427 296.292 374.294H405.084C408.7 374.294 411.631 377.226 411.631 380.842L430.956 544.652L474.749 547.364Z" fill="#FF7373"></path>
<path d="M260.782 194.2C255.871 229.247 256.421 274.591 262.749 280.662C273.767 291.216 331.803 293.647 352.863 294.453C367.607 295.027 373.849 184.037 360.522 164.981C354.035 155.709 350.175 141.026 338.864 140.672C328.969 140.366 324.034 133.733 301.252 143.347C290.796 147.793 265.693 159.154 260.782 194.2Z" fill="#2249B3"></path>
<path d="M325.779 143.457L328.137 128.102C328.137 128.102 353.521 130.325 355.133 138.339C356.746 146.352 355.768 167.693 355.768 167.693L351.249 174.704L325.779 143.457Z" fill="#2249B3"></path>
<path d="M422.602 297.873C374.436 302.698 337.118 275.152 324.939 271.647C323.571 266.638 322.557 257.147 321.946 244.98C321.018 226.473 321.042 201.761 322.264 177.172C322.74 167.399 315.215 159.093 305.443 158.604C295.67 158.14 287.364 165.652 286.887 175.425C286.838 176.378 285.727 199.184 285.947 224.299C286.032 233.827 286.289 241.999 286.68 249.048C288.292 277.962 292.238 287.857 296.379 293.793C303.244 303.602 422.37 322.866 423.482 322.756C433.217 321.779 432.338 296.896 422.602 297.873Z" fill="#915636"></path>
<path d="M321.946 244.98L286.68 249.048C286.289 241.999 286.032 233.827 285.947 224.299C285.727 199.184 286.838 176.378 286.887 175.425C287.364 165.652 295.67 158.14 305.443 158.604C315.215 159.093 322.74 167.399 322.264 177.172C321.042 201.761 321.018 226.473 321.946 244.98Z" fill="#2249B3"></path>
<path fill-rule="evenodd" clip-rule="evenodd" d="M308.23 153.934C308.353 153.552 308.764 153.342 309.146 153.465L308.923 154.158C309.146 153.465 309.146 153.465 309.146 153.465L309.148 153.466L309.151 153.467L309.163 153.47L309.203 153.484C309.238 153.496 309.288 153.513 309.353 153.536C309.483 153.581 309.67 153.649 309.907 153.74C310.382 153.922 311.057 154.197 311.866 154.573C313.483 155.324 315.647 156.48 317.828 158.101C322.184 161.338 326.694 166.498 326.923 174.047C327.084 179.348 326.831 189.851 326.553 201.371C326.45 205.633 326.344 210.034 326.254 214.362C326.088 222.388 325.978 230.173 326.047 236.387C326.082 239.494 326.162 242.201 326.302 244.345C326.443 246.514 326.642 248.034 326.889 248.816L327.132 249.583L299.251 255.441C298.857 255.524 298.471 255.272 298.389 254.878C298.306 254.485 298.558 254.099 298.952 254.016L325.306 248.479C325.103 247.486 324.957 246.102 324.849 244.439C324.706 242.258 324.626 239.522 324.591 236.403C324.521 230.164 324.632 222.36 324.799 214.332C324.889 209.975 324.996 205.554 325.099 201.28C325.376 189.782 325.627 179.35 325.468 174.091C325.257 167.165 321.131 162.37 316.96 159.27C314.878 157.723 312.806 156.615 311.253 155.894C310.477 155.534 309.834 155.271 309.386 155.1C309.162 155.014 308.988 154.951 308.87 154.909C308.812 154.889 308.767 154.874 308.739 154.864L308.707 154.853L308.7 154.851L308.699 154.851C308.316 154.727 308.106 154.317 308.23 153.934Z" fill="#120B07"></path>
<path d="M330.484 29.9256C329.177 24.9661 325.414 19.6035 321.383 16.7695C313.37 11.1625 302.681 7.90098 294.338 11.529C285.995 15.157 285.726 14.3264 279.227 22.6207C265.693 39.9423 254.393 65.314 255.212 89.6107C255.676 103.292 258.547 122.361 258.571 134.686C258.583 143.017 257.325 155.062 254.601 157.688C247.443 164.614 244.963 160.302 238 160.693C246.746 167.387 249.299 170.71 263.726 172.066C265.558 172.237 286.545 169.219 292.371 162.99C297.49 157.529 299.615 142.284 300.336 137.007C304.672 105.296 289.769 78.5801 305.185 50.3256C308.923 43.4849 323.093 34.1766 330.484 29.9256Z" fill="#120B07"></path>
<path d="M333.977 25.6135C332.23 33.7979 319.978 41.3227 311.915 41.8724C303.841 42.4221 300.714 51.2783 299.956 40.3943C299.199 29.5102 301.654 15.0959 309.729 14.5462C317.803 13.9965 336.188 15.2547 333.977 25.6135Z" fill="#2249B3"></path>
<path d="M380.358 72.2767C380.358 72.2767 393.539 59.8657 391.193 49.2016C388.86 38.5374 374.58 7.05793 336.492 19.1758C336.492 19.1758 322.322 14.5949 307.358 31.4768C293.481 47.1371 276.257 92.7255 315.261 105.735L380.358 72.2767Z" fill="#120B07"></path>
<path d="M343.714 121.921L341.869 148.099L336.299 154.402L327.455 129.067L327.125 111.281L343.714 121.921Z" fill="black"></path>
<path d="M327.125 114.58C327.125 114.58 351.336 128.847 357.297 126.575C370.942 121.384 386.749 61.7717 382.143 59.2431C377.55 56.7145 328.615 38.4278 322.544 65.3753C319.099 80.657 310.157 70.4448 310.157 70.4448C310.157 70.4448 300.654 65.3753 300.031 74.1583C299.408 82.9413 304.941 93.0435 310.035 91.0035C310.035 91.0035 316.326 133.489 310.499 144.63C346.437 179.957 341.087 159.325 341.869 148.099C342.663 136.873 343.176 129.592 343.176 129.592L327.125 114.58Z" fill="#915636"></path>
<path fill-rule="evenodd" clip-rule="evenodd" d="M371.524 86.1184C371.524 86.1185 371.524 86.1183 371.524 86.1184L371.523 86.12L371.517 86.1348C371.51 86.1491 371.501 86.172 371.488 86.2031C371.462 86.2654 371.424 86.3607 371.378 86.4859C371.286 86.7366 371.16 87.1066 371.034 87.5725C370.78 88.5062 370.524 89.8145 370.512 91.3139M371.524 86.1184C371.524 86.1185 371.524 86.1183 371.524 86.1184ZM370.869 85.8237L370.215 85.5291C370.378 85.1677 370.803 85.0067 371.164 85.1694C371.525 85.332 371.686 85.7572 371.524 86.1184C371.524 86.1185 371.524 86.1183 371.524 86.1184M370.869 85.8237C370.215 85.5291 370.215 85.5289 370.215 85.5291L370.214 85.5308L370.213 85.5334L370.21 85.5411L370.199 85.5666C370.189 85.588 370.177 85.6184 370.161 85.6572C370.129 85.7348 370.084 85.8464 370.032 85.9891C369.926 86.2744 369.788 86.6847 369.649 87.196C369.371 88.2168 369.09 89.6508 369.077 91.303C369.052 95.0333 369.697 98.5616 370.214 101.209C370.251 101.396 370.286 101.578 370.321 101.755C370.535 102.846 370.711 103.743 370.797 104.432C370.847 104.833 370.859 105.118 370.843 105.305C370.84 105.342 370.836 105.371 370.832 105.392C370.399 105.688 369.792 105.903 369.063 106.037C368.294 106.178 367.444 106.22 366.629 106.203C365.817 106.185 365.06 106.109 364.484 106.021C364.196 105.977 363.961 105.932 363.791 105.892C363.705 105.872 363.644 105.854 363.604 105.842C363.597 105.839 363.591 105.837 363.586 105.835C363.256 105.658 362.841 105.765 362.639 106.086C362.429 106.422 362.53 106.865 362.865 107.076C362.972 107.143 363.091 107.184 363.163 107.207C363.251 107.236 363.352 107.263 363.46 107.288C363.678 107.34 363.954 107.392 364.269 107.44C364.901 107.536 365.72 107.618 366.598 107.637C367.475 107.656 368.428 107.613 369.322 107.449C370.207 107.286 371.09 106.995 371.776 106.48C372.16 106.193 372.246 105.731 372.273 105.431C372.303 105.09 372.275 104.685 372.221 104.255C372.129 103.512 371.941 102.555 371.728 101.472C371.694 101.296 371.658 101.117 371.623 100.934C371.107 98.2928 370.488 94.8882 370.512 91.3139" fill="black"></path>
<path fill-rule="evenodd" clip-rule="evenodd" d="M358.075 82.7928C356.274 82.4752 353.261 82.5603 348.715 84.4967C348.139 84.7421 347.473 84.4741 347.228 83.8981C346.982 83.3221 347.25 82.6562 347.826 82.4109C352.686 80.3406 356.148 80.1508 358.469 80.5601C359.626 80.764 360.479 81.1136 361.062 81.4315C361.352 81.59 361.573 81.7397 361.73 81.8575C361.808 81.9165 361.871 81.9674 361.917 82.0076C361.94 82.0277 361.96 82.045 361.975 82.0593L361.996 82.0785L362.004 82.0863L362.008 82.0897L362.009 82.0913C362.01 82.092 362.011 82.0928 361.224 82.8993L362.011 82.0928C362.459 82.5301 362.468 83.2478 362.03 83.6958C361.597 84.1395 360.89 84.1525 360.441 83.7282C360.44 83.7274 360.439 83.7263 360.437 83.7249C360.427 83.7164 360.404 83.697 360.367 83.6692C360.293 83.6137 360.164 83.5246 359.976 83.4216C359.6 83.2165 358.98 82.9523 358.075 82.7928ZM360.429 83.7171C360.429 83.717 360.429 83.7169 360.429 83.7168C360.429 83.7168 360.429 83.7168 360.429 83.7169L360.429 83.7171Z" fill="black"></path>
<path fill-rule="evenodd" clip-rule="evenodd" d="M381.231 87.6133C382.684 88.0283 384.801 88.8617 387.599 90.5301C388.137 90.8508 388.312 91.5467 387.992 92.0844C387.671 92.6221 386.975 92.798 386.438 92.4773C383.787 90.8964 381.849 90.1478 380.608 89.7933C379.988 89.616 379.541 89.537 379.265 89.5018C379.127 89.4841 379.031 89.4774 378.978 89.4748C378.951 89.4736 378.935 89.4733 378.929 89.4733C378.928 89.4733 378.927 89.4733 378.927 89.4733C378.927 89.4733 378.927 89.4733 378.928 89.4732L378.934 89.4731L378.938 89.473L378.941 89.473L378.942 89.4729C378.943 89.4729 378.943 89.4729 378.907 88.3399L378.943 89.4729C378.318 89.493 377.794 89.002 377.774 88.3763C377.754 87.7505 378.245 87.2269 378.871 87.2069L378.907 88.3399C378.871 87.2069 378.871 87.2068 378.872 87.2068L378.874 87.2068L378.877 87.2067L378.884 87.2065L378.901 87.2062C378.914 87.2061 378.929 87.206 378.947 87.2061C378.983 87.2064 379.03 87.2075 379.087 87.2102C379.2 87.2157 379.355 87.2277 379.552 87.2528C379.945 87.3031 380.505 87.4058 381.231 87.6133Z" fill="black"></path>
<path d="M357.174 91.0761C356.966 92.1511 355.916 92.8596 354.816 92.6519C354.487 92.5908 354.193 92.4442 353.949 92.2366C353.387 91.7968 353.094 91.0517 353.241 90.3065C353.412 89.4514 354.096 88.8284 354.902 88.7185C355.122 88.6819 355.354 88.6819 355.586 88.7307C356.685 88.9384 357.394 89.9889 357.174 91.0761Z" fill="black"></path>
<path d="M380.128 97.0739C379.92 98.1489 378.857 98.8574 377.782 98.6497C376.695 98.4298 375.987 97.3793 376.194 96.3043C376.414 95.2171 377.465 94.5086 378.552 94.7163C379.639 94.9362 380.348 95.9867 380.128 97.0739Z" fill="black"></path>
<path fill-rule="evenodd" clip-rule="evenodd" d="M356.297 111.143C356.684 111.056 357.068 111.3 357.154 111.686C357.45 113.007 358.116 114.47 359.663 115.26L359.664 115.26C361.141 116.015 362.63 116.132 363.775 115.295C364.095 115.061 364.544 115.131 364.778 115.451C365.012 115.771 364.942 116.22 364.622 116.454C362.86 117.742 360.734 117.419 359.01 116.538L359.337 115.899L359.011 116.538C356.918 115.47 356.093 113.514 355.754 112C355.667 111.613 355.91 111.23 356.297 111.143Z" fill="black"></path>
<path d="M317.268 83.894C317.268 83.894 321.336 84.2971 325.77 81.6341C330.204 78.9833 335.127 59.8782 346.316 64.8011C357.506 69.724 377.124 81.4387 387.08 73.9139C406.881 58.9621 381.057 29.5226 381.057 29.5226C381.057 29.5226 352.632 27.2994 347.355 26.9573C343.69 26.713 323.864 32.7964 312.149 36.5099C307.3 38.049 303.391 56.3724 304.832 61.2586L317.268 83.894Z" fill="#120B07"></path>
<path d="M308.288 88.0719C309.098 88.0719 309.754 87.4156 309.754 86.606C309.754 85.7964 309.098 85.1401 308.288 85.1401C307.479 85.1401 306.822 85.7964 306.822 86.606C306.822 87.4156 307.479 88.0719 308.288 88.0719Z" fill="#B0C1E1"></path>
<path d="M305.076 145.973V125.146C305.076 125.146 331.669 136.116 332.305 144.276C333.086 154.17 347.415 162.794 347.415 162.794L339.304 181.936C336.837 167.656 319.674 152.472 305.076 145.973Z" fill="#2249B3"></path>
<path d="M348.061 185.075C349.795 185.075 351.201 183.67 351.201 181.936C351.201 180.202 349.795 178.796 348.061 178.796C346.327 178.796 344.922 180.202 344.922 181.936C344.922 183.67 346.327 185.075 348.061 185.075Z" fill="#B0C1E1"></path>
<path d="M348.061 210.032C349.795 210.032 351.201 208.626 351.201 206.892C351.201 205.158 349.795 203.753 348.061 203.753C346.327 203.753 344.922 205.158 344.922 206.892C344.922 208.626 346.327 210.032 348.061 210.032Z" fill="#B0C1E1"></path>
<path fill-rule="evenodd" clip-rule="evenodd" d="M308.137 121.989C308.329 121.636 308.771 121.505 309.125 121.697L308.777 122.337L308.429 122.976C308.076 122.784 307.945 122.342 308.137 121.989ZM338.232 142.815C338.365 144.01 338.9 145.617 339.771 147.431C340.637 149.234 341.812 151.198 343.184 153.096C345.947 156.919 349.43 160.373 352.69 161.798C353.33 162.077 353.815 162.653 354.194 163.33C354.578 164.019 354.901 164.898 355.176 165.913C355.726 167.947 356.117 170.65 356.388 173.764C356.931 180.001 357.006 188.013 356.866 195.908C356.726 203.809 356.371 211.613 356.051 217.44C355.891 220.354 355.74 222.775 355.629 224.468C355.573 225.314 355.527 225.978 355.495 226.431C355.48 226.657 355.467 226.831 355.459 226.948L355.446 227.123L355.446 227.126C355.446 227.126 355.446 227.126 354.72 227.073C353.994 227.019 353.994 227.019 353.994 227.018L354.006 226.843C354.015 226.727 354.027 226.555 354.043 226.329C354.075 225.878 354.12 225.216 354.176 224.372C354.287 222.684 354.438 220.268 354.597 217.36C354.917 211.543 355.271 203.759 355.41 195.883C355.55 188.002 355.474 180.05 354.937 173.891C354.669 170.807 354.287 168.204 353.77 166.294C353.511 165.337 353.227 164.585 352.923 164.041C352.612 163.485 352.327 163.228 352.107 163.132C348.491 161.551 344.821 157.847 342.004 153.949C340.587 151.988 339.365 149.951 338.459 148.062C337.557 146.184 336.944 144.407 336.784 142.976C336.739 142.564 336.38 141.898 335.563 140.986C334.776 140.107 333.663 139.106 332.317 138.031C329.628 135.882 326.081 133.493 322.534 131.258C318.991 129.024 315.464 126.953 312.822 125.44C311.501 124.684 310.402 124.068 309.634 123.64C309.25 123.427 308.948 123.26 308.743 123.148C308.64 123.091 308.562 123.048 308.509 123.02L308.431 122.977C308.43 122.977 308.429 122.976 308.777 122.337C309.125 121.697 309.124 121.697 309.125 121.697L309.207 121.742C309.261 121.771 309.34 121.815 309.444 121.872C309.651 121.985 309.955 122.153 310.341 122.368C311.114 122.797 312.219 123.417 313.546 124.177C316.199 125.696 319.745 127.778 323.311 130.026C326.873 132.271 330.473 134.694 333.226 136.893C334.601 137.992 335.783 139.05 336.647 140.015C337.482 140.946 338.131 141.91 338.232 142.815ZM354.72 227.073L353.994 227.018C353.964 227.419 354.265 227.769 354.666 227.799C355.067 227.828 355.416 227.527 355.446 227.126L354.72 227.073Z" fill="#120B07"></path>
<path fill-rule="evenodd" clip-rule="evenodd" d="M347.442 127.89C347.559 127.547 347.932 127.363 348.276 127.48L348.064 128.102C348.276 127.48 348.276 127.48 348.276 127.48L348.278 127.481L348.284 127.483L348.304 127.49L348.38 127.517C348.445 127.54 348.54 127.574 348.661 127.619C348.902 127.709 349.247 127.842 349.667 128.016C350.506 128.364 351.648 128.875 352.856 129.533C354.063 130.189 355.349 130.999 356.47 131.944C357.587 132.886 358.573 133.992 359.133 135.25C359.684 136.489 359.985 138.276 360.145 140.192C360.306 142.126 360.328 144.263 360.287 146.245C360.247 148.23 360.143 150.07 360.049 151.413C360.002 152.085 359.957 152.634 359.925 153.015C359.908 153.205 359.895 153.354 359.885 153.455L359.875 153.571L359.872 153.601L359.871 153.611C359.871 153.611 359.871 153.612 359.216 153.547L359.871 153.611C359.835 153.972 359.513 154.237 359.152 154.201C358.791 154.166 358.527 153.844 358.562 153.483L358.829 153.509C358.562 153.483 358.562 153.483 358.562 153.483L358.563 153.474L358.566 153.446L358.576 153.334C358.586 153.235 358.599 153.09 358.615 152.902C358.647 152.527 358.691 151.986 358.737 151.322C358.83 149.993 358.933 148.175 358.973 146.218C359.013 144.26 358.991 142.172 358.835 140.301C358.677 138.411 358.388 136.811 357.932 135.784C357.484 134.777 356.658 133.823 355.623 132.949C354.592 132.08 353.387 131.318 352.228 130.688C351.071 130.058 349.974 129.566 349.165 129.231C348.761 129.064 348.43 128.936 348.201 128.851C348.087 128.808 347.998 128.776 347.939 128.755L347.872 128.731L347.856 128.726L347.852 128.725C347.852 128.725 347.852 128.725 347.852 128.725C347.509 128.607 347.324 128.234 347.442 127.89Z" fill="#120B07"></path>
<path fill-rule="evenodd" clip-rule="evenodd" d="M452.748 323.63C456.719 324.415 460.498 326.433 462.473 330.258L462.473 330.259C464.893 334.952 464.415 342.205 459.555 346.257L459.555 346.257C456.89 348.478 453.341 349.355 450.108 349.13C446.9 348.906 443.749 347.569 442.071 345.041C441.109 343.595 440.61 341.724 440.622 339.989C440.634 338.284 441.151 336.431 442.565 335.319L442.565 335.319C444.054 334.148 446.216 334.042 448.313 334.671C450.453 335.312 452.731 336.762 454.702 339.048C455.143 339.559 455.086 340.33 454.575 340.771C454.064 341.212 453.293 341.155 452.852 340.644C451.146 338.666 449.252 337.503 447.612 337.011C445.928 336.506 444.7 336.748 444.076 337.239M452.748 323.63C448.777 322.846 444.441 323.251 441.027 324.436ZM441.026 324.436C437.49 325.663 433.872 328.097 431.27 331.247C428.666 334.4 426.998 338.379 427.624 342.649M452.274 326.027C448.748 325.33 444.851 325.695 441.828 326.744L441.827 326.745C438.706 327.827 435.465 330.004 433.154 332.803C430.844 335.599 429.544 338.906 430.041 342.295L430.042 342.296C430.687 346.716 434.153 349.608 437.942 351.469C441.689 353.309 445.452 353.987 446.147 354.106C447.272 354.287 458.31 355.892 466.219 347.579C472.636 340.826 472.379 332.403 472.297 330.897C472.261 330.223 472.778 329.647 473.452 329.611C474.125 329.575 474.701 330.092 474.737 330.765C474.827 332.435 475.131 341.748 467.99 349.263L467.989 349.263C459.152 358.551 446.931 356.707 445.752 356.517L445.741 356.515L445.741 356.515C444.991 356.387 440.941 355.664 436.865 353.662C432.821 351.675 428.445 348.27 427.624 342.65M452.274 326.027C455.8 326.723 458.783 328.437 460.302 331.379ZM460.302 331.379C462.303 335.261 461.804 341.2 457.991 344.38ZM443.065 340.006C443.056 341.309 443.442 342.692 444.105 343.689L444.106 343.69C445.225 345.376 447.534 346.501 450.278 346.693C452.997 346.882 455.892 346.13 457.991 344.38M443.065 340.006C443.075 338.672 443.486 337.703 444.075 337.239Z" fill="#B0C1E1"></path>
<path d="M410.043 304.665C408.894 305.459 412.913 304.226 413.451 304.849C416.712 308.611 406.5 320.057 406.5 320.057C406.5 320.057 424.408 324.894 434.864 325.065C440.105 325.151 448.033 319.409 451.917 320.46C455.338 321.388 462.142 316.673 459.21 312.092C460.713 314.01 466.723 307.939 463.779 304.714C464.438 304.47 470.314 309.258 470.094 304.665C469.605 294.526 457.353 287.331 442.646 285.133C441.314 284.925 421.904 296.456 410.043 304.665Z" fill="#915636"></path>
</svg>
